<mxfile host="65bd71144e">
    <diagram id="1nuQO09vybNOhaYmFkF1" name="Page-1">
        <mxGraphModel dx="1093" dy="916" grid="1" gridSize="10" guides="1" tooltips="1" connect="1" arrows="1" fold="1" page="1" pageScale="1" pageWidth="827" pageHeight="1169" background="#ffffff" math="1" shadow="0">
            <root>
                <mxCell id="0"/>
                <mxCell id="1" parent="0"/>
                <mxCell id="6" style="edgeStyle=none;html=1;exitX=0.5;exitY=1;exitDx=0;exitDy=0;entryX=0.5;entryY=0;entryDx=0;entryDy=0;fontFamily=Helvetica;fontSize=12;fontColor=default;" edge="1" parent="1" source="zMBQPZwOg3jAW1KsyyCJ-1" target="zMBQPZwOg3jAW1KsyyCJ-2">
                    <mxGeometry relative="1" as="geometry"/>
                </mxCell>
                <mxCell id="zMBQPZwOg3jAW1KsyyCJ-1" value="начало" style="ellipse;whiteSpace=wrap;html=1;" parent="1" vertex="1">
                    <mxGeometry x="328.5" y="220" width="90" height="50" as="geometry"/>
                </mxCell>
                <mxCell id="7" style="edgeStyle=none;html=1;exitX=0.5;exitY=1;exitDx=0;exitDy=0;entryX=0.5;entryY=0;entryDx=0;entryDy=0;fontFamily=Helvetica;fontSize=12;fontColor=default;" edge="1" parent="1" source="zMBQPZwOg3jAW1KsyyCJ-2" target="zMBQPZwOg3jAW1KsyyCJ-9">
                    <mxGeometry relative="1" as="geometry"/>
                </mxCell>
                <mxCell id="zMBQPZwOg3jAW1KsyyCJ-2" value="ввод \(X^N, M, d(x^{(i)},x^{(j)})&lt;br&gt;\)" style="shape=parallelogram;perimeter=parallelogramPerimeter;whiteSpace=wrap;html=1;fixedSize=1;strokeColor=default;fillColor=default;allowArrows=1;connectable=1;" parent="1" vertex="1">
                    <mxGeometry x="242.75" y="300" width="261.5" height="60" as="geometry"/>
                </mxCell>
                <mxCell id="8" style="edgeStyle=none;html=1;exitX=0.5;exitY=1;exitDx=0;exitDy=0;entryX=0.5;entryY=0;entryDx=0;entryDy=0;fontFamily=Helvetica;fontSize=12;fontColor=default;" edge="1" parent="1" source="zMBQPZwOg3jAW1KsyyCJ-9" target="zMBQPZwOg3jAW1KsyyCJ-10">
                    <mxGeometry relative="1" as="geometry"/>
                </mxCell>
                <mxCell id="zMBQPZwOg3jAW1KsyyCJ-9" value="\(\widetilde M=N\)&lt;br&gt;\(Q_N^1=\{x^1,...,x^N\}, x^{(*)}=x^*\)" style="rounded=0;whiteSpace=wrap;html=1;strokeColor=default;fillColor=default;" parent="1" vertex="1">
                    <mxGeometry x="257" y="380" width="233" height="70" as="geometry"/>
                </mxCell>
                <mxCell id="9" style="edgeStyle=none;html=1;exitX=0.5;exitY=1;exitDx=0;exitDy=0;entryX=0.5;entryY=0;entryDx=0;entryDy=0;fontFamily=Helvetica;fontSize=12;fontColor=default;" edge="1" parent="1" source="zMBQPZwOg3jAW1KsyyCJ-10" target="zMBQPZwOg3jAW1KsyyCJ-11">
                    <mxGeometry relative="1" as="geometry"/>
                </mxCell>
                <mxCell id="zMBQPZwOg3jAW1KsyyCJ-10" value="Находим пару групп \(x^{N_i}\) и \(x^{N_j}\) для \(Q_{N-K+1}^k\) и \(\widetilde{M}=N-k+1\)" style="rounded=0;whiteSpace=wrap;html=1;strokeColor=default;fillColor=default;" parent="1" vertex="1">
                    <mxGeometry x="257" y="470" width="233" height="70" as="geometry"/>
                </mxCell>
                <mxCell id="5" style="edgeStyle=none;html=1;exitX=0.5;exitY=1;exitDx=0;exitDy=0;entryX=0.5;entryY=0;entryDx=0;entryDy=0;fontFamily=Helvetica;fontSize=12;fontColor=default;" edge="1" parent="1" source="zMBQPZwOg3jAW1KsyyCJ-11" target="3">
                    <mxGeometry relative="1" as="geometry"/>
                </mxCell>
                <mxCell id="zMBQPZwOg3jAW1KsyyCJ-11" value="\(x^{N_i+N_j} = x^{N_i}\cup x^{N_j}\), &lt;br&gt;изымаем из \(Q_{N-k+1}^k\) элемент \(x^{N_J}\)" style="whiteSpace=wrap;html=1;fixedSize=1;strokeColor=default;fillColor=default;" parent="1" vertex="1">
                    <mxGeometry x="260" y="560" width="230" height="70" as="geometry"/>
                </mxCell>
                <mxCell id="zMBQPZwOg3jAW1KsyyCJ-12" value="конец" style="ellipse;whiteSpace=wrap;html=1;" parent="1" vertex="1">
                    <mxGeometry x="330" y="870" width="90" height="50" as="geometry"/>
                </mxCell>
                <mxCell id="15" style="edgeStyle=orthogonalEdgeStyle;html=1;exitX=0.5;exitY=1;exitDx=0;exitDy=0;entryX=0.5;entryY=0;entryDx=0;entryDy=0;fontFamily=Helvetica;fontSize=12;fontColor=default;" edge="1" parent="1" source="3" target="10">
                    <mxGeometry relative="1" as="geometry"/>
                </mxCell>
                <mxCell id="3" value="образовываем новую кластеризацию &lt;br&gt;\(Q_{N-k}^k\)&amp;nbsp;с новыми обозначениями групп.&lt;br&gt;\(\widetilde M = N-k\)" style="rounded=0;whiteSpace=wrap;html=1;fontFamily=Helvetica;fontSize=12;fontColor=default;strokeColor=default;fillColor=default;" vertex="1" parent="1">
                    <mxGeometry x="260" y="660" width="230" height="70" as="geometry"/>
                </mxCell>
                <mxCell id="11" style="edgeStyle=orthogonalEdgeStyle;html=1;exitX=1;exitY=0.5;exitDx=0;exitDy=0;fontFamily=Helvetica;fontSize=12;fontColor=default;" edge="1" parent="1" source="10">
                    <mxGeometry relative="1" as="geometry">
                        <mxPoint x="375" y="460" as="targetPoint"/>
                        <Array as="points">
                            <mxPoint x="650" y="790"/>
                            <mxPoint x="650" y="460"/>
                        </Array>
                    </mxGeometry>
                </mxCell>
                <mxCell id="13" value="НЕТ" style="edgeLabel;html=1;align=center;verticalAlign=middle;resizable=0;points=[];fontSize=12;fontFamily=Helvetica;fontColor=default;" vertex="1" connectable="0" parent="11">
                    <mxGeometry x="-0.8684" y="4" relative="1" as="geometry">
                        <mxPoint as="offset"/>
                    </mxGeometry>
                </mxCell>
                <mxCell id="12" style="edgeStyle=orthogonalEdgeStyle;html=1;exitX=0.5;exitY=1;exitDx=0;exitDy=0;entryX=0.5;entryY=0;entryDx=0;entryDy=0;fontFamily=Helvetica;fontSize=12;fontColor=default;" edge="1" parent="1" source="10" target="zMBQPZwOg3jAW1KsyyCJ-12">
                    <mxGeometry relative="1" as="geometry"/>
                </mxCell>
                <mxCell id="10" value="\(\widetilde M\) равно \(M\)?" style="rhombus;whiteSpace=wrap;html=1;fontFamily=Helvetica;fontSize=12;fontColor=default;strokeColor=default;fillColor=default;" vertex="1" parent="1">
                    <mxGeometry x="323.5" y="750" width="103" height="80" as="geometry"/>
                </mxCell>
                <mxCell id="14" value="ДА" style="edgeLabel;html=1;align=center;verticalAlign=middle;resizable=0;points=[];fontSize=12;fontFamily=Helvetica;fontColor=default;" vertex="1" connectable="0" parent="1">
                    <mxGeometry x="374.9962251223687" y="839.9969388342149" as="geometry">
                        <mxPoint x="-4" y="-2" as="offset"/>
                    </mxGeometry>
                </mxCell>
            </root>
        </mxGraphModel>
    </diagram>
</mxfile>